HIERARCHY
ROOT Hips
{
	OFFSET	0.00	0.00	0.00
	CHANNELS 6 Xposition Yposition Zposition Zrotation Xrotation Yrotation
	JOINT Spine
	{
		OFFSET	 0.00	0.01	 0.00
		CHANNELS 3 Zrotation Xrotation Yrotation
		JOINT Spine1
		{
			OFFSET	 0.00	 2.45913012437421	 0.00
			CHANNELS 3 Zrotation Xrotation Yrotation
            JOINT Neck
            {
                OFFSET	 0.00	 2.48462964506057	 0.00
                CHANNELS 3 Zrotation Xrotation Yrotation
                JOINT Head
                {
                    OFFSET	 0.00	 0.927524780924562	 0.00
                    CHANNELS 3 Zrotation Xrotation Yrotation
                    End Site 
                    {
                        OFFSET	 0.00	 1.14999962169752	 0.00
                    }
                }
            }
			JOINT LeftShoulder
			{
				OFFSET	 0.00	 2.48462964506057	 0.00
				CHANNELS 3 Zrotation Xrotation Yrotation
				JOINT LeftUpArm
				{
					OFFSET	 0.00	 1.24881979654096	 0.00
					CHANNELS 3 Zrotation Xrotation Yrotation
					JOINT LeftForeArm
					{
						OFFSET	 0.00	2.59758046908119	 0.00
						CHANNELS 3 Zrotation Xrotation Yrotation
						JOINT LeftHand
						{
							OFFSET	 0.00	2.45542024364365	 0.00
							CHANNELS 3 Zrotation Xrotation Yrotation
							JOINT LeftHandThumb 
							{
								OFFSET	 0.00	0.00	 0.00
								CHANNELS 3 Zrotation Xrotation Yrotation
								End Site
								{
									OFFSET	 0.00	0.00	1.00000003353624
								}
							}
							JOINT L_Wrist_End 
							{
								OFFSET	 0.00	0.99999967115358	 0.00
								CHANNELS 3 Zrotation Xrotation Yrotation
								End Site 
								{
									OFFSET	 0.00	 0.00	 0.00
								}
							}
						}
					}
				}
			}
			JOINT RightShoulder
			{
				OFFSET	 0.00	 2.48462964506057	 0.00
				CHANNELS 3 Zrotation Xrotation Yrotation
				JOINT RightUpArm
				{
					OFFSET	 0.00	 1.24881979654096	 0.00
					CHANNELS 3 Zrotation Xrotation Yrotation
					JOINT RightForeArm
					{
						OFFSET	 0.00	2.59758046908119	 0.00
						CHANNELS 3 Zrotation Xrotation Yrotation
						JOINT RightHand
						{
							OFFSET	 0.00	2.45542024364365	 0.00
							CHANNELS 3 Zrotation Xrotation Yrotation
							JOINT RightHandThumb 
							{
								OFFSET	 0.00	0.00	 0.00
								CHANNELS 3 Zrotation Xrotation Yrotation
								End Site
								{
									OFFSET	 0.00	0.00	1.00000003353624
								}
							}
							JOINT R_Wrist_End 
							{
								OFFSET	 0.00	0.99999967115358	 0.00
								CHANNELS 3 Zrotation Xrotation Yrotation
								End Site 
								{
									OFFSET	 0.00	 0.00	 0.00
								}
							}
						}
					}
				}
			}
		}
	}
	JOINT LeftUpLeg
	{
		OFFSET	 1.2719394002717	 0.00	 0.00
		CHANNELS 3 Zrotation Xrotation Yrotation
		JOINT LeftLowLeg
		{
			OFFSET	 0.00	-4.3429100912261	 0.00
			CHANNELS 3 Zrotation Xrotation Yrotation
			JOINT LeftFoot
			{
				OFFSET	 0.00	-4.48767017425826	 0.00
				CHANNELS 3 Zrotation Xrotation Yrotation
				JOINT LeftToeBase
                {
                    OFFSET	 0.00	0.00	 1.51507020887566
                    CHANNELS 3 Zrotation Xrotation Yrotation
                    End Site 
                    {
                        OFFSET	 0.00	0.00	 0.75000010571191
                    }
                }
			}
		}
	}
	JOINT RightUpLeg
	{
		OFFSET	 -1.2719393604653	 0.00	 0.00
		CHANNELS 3 Zrotation Xrotation Yrotation
		JOINT RightLowLeg
		{
			OFFSET	 0.00	-4.3429100912261	 0.00
			CHANNELS 3 Zrotation Xrotation Yrotation
			JOINT RightFoot
			{
				OFFSET	 0.00	-4.48767017425826	 0.00
				CHANNELS 3 Zrotation Xrotation Yrotation
				JOINT RightToeBase
                {
                    OFFSET	 0.00	0.00	 1.51507020887566
                    CHANNELS 3 Zrotation Xrotation Yrotation
                    End Site 
                    {
                        OFFSET	 0.00	0.00	 0.749999965609858
                    }
                }   
			}
		}
	}
}
MOTION 
Frames:	20 
Frame Time: 0.02 
 -2.673190002441406 -0.749655990600586 9.271019897460938 74.4598 87.4864 643.794 3.61742 -16.3239 1.98301 -6.60183 16.4753 2.46915 13.7608 52.5679 353.544 -53.1228 -81.4337 -405.109 -115.6044 -4.43326 366.147 -48.4801 6.44483 12.3509 0.0 18.1412 0.0 2.18096 -16.1282 -7.0233 0.0 0.0 0.0 0.0 0.0 0.0 120.5195 -6.95762 -360.821 48.8783 0.957752 -12.7988 0.0 22.7647 0.0 2.78345 -7.46825 14.911 0.0 0.0 0.0 0.0 0.0 0.0 -1.95943 4.15432 -7.92618 0.0 14.04 0.0 -10.29 -7.0296993 12.7653 0.0 -21.61438 0.0 2.04938 2.89789 15.2817 0.0 18.9619 0.0 28.6605 -15.456301 -8.41675 0.0 -18.13875 0.0 
  -2.670570068359375 -0.73981201171875 9.270239868164062 71.1537 87.4453 647.139 3.63001 -15.8719 1.82399 -6.56458 16.5362 2.24928 13.0062 51.0178 354.318 -54.6346 -81.8256 -406.547 -115.6046 -4.21493 365.786 -48.3785 6.36104 12.6318 0.0 17.4846 0.0 2.85864 -16.0061 -6.70883 0.0 0.0 0.0 0.0 0.0 0.0 120.7212 -6.72431 -360.65 48.6039 1.23891 -12.9913 0.0 22.331 0.0 3.27337 -8.38626 14.3742 0.0 0.0 0.0 0.0 0.0 0.0 -1.98211 4.18048 -8.00255 0.0 14.1578 0.0 -10.2869 -7.0968 12.7695 0.0 -21.516449 0.0 2.06233 2.96208 15.344 0.0 19.0377 0.0 28.707 -15.528799 -8.47145 0.0 -18.1365 0.0 
  -2.6673098754882814 -0.7300180053710937 9.269910278320312 74.0534 87.4791 644.193 3.65767 -15.6965 1.71987 -6.51763 16.5905 2.11314 12.5046 49.3852 354.77 -56.3791 -82.2169 -408.265 -115.6012 -3.90884 365.967 -48.2379 6.56462 12.5722 0.0 16.9755 0.0 3.40463 -15.9424 -6.58169 0.0 0.0 0.0 0.0 0.0 0.0 120.7329 -6.45127 -360.948 48.4893 1.70627 -12.94 0.0 21.7575 0.0 3.41051 -8.15936 14.4519 0.0 0.0 0.0 0.0 0.0 0.0 -2.02538 3.9354 -7.98712 0.0 14.2624 0.0 -10.4974 -7.2096996 12.7102 0.0 -21.39546 0.0 2.04067 2.71617 15.3345 0.0 19.1201 0.0 28.7492 -15.5142 -8.38381 0.0 -18.14473 0.0 
  -2.6643301391601564 -0.7196730041503906 9.269730224609376 78.3568 87.5159 639.829 3.63534 -15.5587 1.59156 -6.38915 16.6091 2.01429 11.8728 47.8436 355.411 -58.8841 -82.6171 -410.903 -115.6214 -3.64498 366.223 -48.0672 6.78463 12.7399 0.0 16.6677 0.0 3.96327 -15.9169 -5.32719 0.0 0.0 0.0 0.0 0.0 0.0 120.764496 -6.14155 -361.073 48.2762 1.92377 -12.9043 0.0 21.3711 0.0 3.61945 -8.31664 14.718 0.0 0.0 0.0 0.0 0.0 0.0 -2.0733 3.63492 -8.03666 0.0 14.3703 0.0 -10.4813 -7.243 12.827 0.0 -21.36819 0.0 2.02134 2.3932 15.3088 0.0 19.224 0.0 28.7801 -15.488701 -8.2917 0.0 -18.146759 0.0 
  -2.6619601440429688 -0.7096279907226563 9.269829711914063 82.7186 87.5512 635.462 3.52975 -15.4614 1.37973 -6.14885 16.6694 1.93708 11.344 46.3145 355.936 -61.3985 -82.9861 -413.537 -115.6456 -3.42539 366.536 -47.9726 7.11149 12.6758 0.0 16.4049 0.0 4.2765 -15.9529 -4.23181 0.0 0.0 0.0 0.0 0.0 0.0 120.7082 -5.95729 -361.322 48.0887 2.34778 -12.9721 0.0 21.0054 0.0 3.67909 -8.47997 14.6568 0.0 0.0 0.0 0.0 0.0 0.0 -2.09631 3.3283 -8.12913 0.0 14.484 0.0 -10.4639 -7.2815 12.9274 0.0 -21.34061 0.0 2.02272 2.09105 15.2333 0.0 19.3055 0.0 28.7838 -15.452499 -8.23911 0.0 -18.1574 0.0 
  -2.658630065917969 -0.7002760314941406 9.269920043945312 86.5678 87.5566 631.566 3.43861 -15.3354 1.23073 -5.95316 16.7013 1.89804 11.0452 44.9069 356.246 -63.9249 -83.3611 -416.15 -115.660995 -3.24449 366.65 -47.9133 7.30041 12.7147 0.0 16.235 0.0 4.65344 -16.1221 -3.0889 0.0 0.0 0.0 0.0 0.0 0.0 120.678696 -5.81846 -361.453 47.8729 2.64624 -13.121 0.0 20.6425 0.0 3.79422 -8.50165 15.0261 0.0 0.0 0.0 0.0 0.0 0.0 -2.1386 3.09293 -8.2 0.0 14.5247 0.0 -10.4649 -7.306299 13.028 0.0 -21.30389 0.0 1.99061 1.83273 15.1537 0.0 19.3425 0.0 28.8265 -15.4088 -8.13242 0.0 -18.16068 0.0 
  -2.6554901123046877 -0.6904109954833985 9.270139770507813 89.8074 87.578 628.234 3.39122 -15.1585 1.15758 -5.76003 16.6659 1.89411 10.877 43.6193 356.402 -66.3605 -83.6827 -418.7 -115.6783 -3.06493 366.812 -47.8529 7.52054 12.7607 0.0 16.1104 0.0 4.80904 -16.2055 -2.43387 0.0 0.0 0.0 0.0 0.0 0.0 120.7056 -5.65618 -361.605 47.5808 2.78588 -13.2413 0.0 20.594 0.0 3.73363 -8.99542 14.7656 0.0 0.0 0.0 0.0 0.0 0.0 -2.14407 2.90009 -8.18219 0.0 14.539 0.0 -10.5199 -7.3505 13.0534 0.0 -21.24448 0.0 1.99028 1.58336 15.1682 0.0 19.407 0.0 28.8121 -15.3536 -8.08907 0.0 -18.1481 0.0 
  -2.6511199951171873 -0.684530029296875 9.270670166015625 92.9524 87.5713 625.088 3.30906 -15.0707 1.04525 -5.57746 16.6521 1.87997 10.837 42.5289 356.449 -68.2699 -83.9682 -420.701 -115.6711 -2.90442 366.919 -47.8587 7.64393 12.7722 0.0 16.1152 0.0 4.81213 -16.2191 -2.82305 0.0 0.0 0.0 0.0 0.0 0.0 120.6444 -5.52293 -361.685 47.398 2.7306 -13.1995 0.0 20.5455 0.0 3.50631 -8.62166 13.7064 0.0 0.0 0.0 0.0 0.0 0.0 -2.16922 2.75062 -8.25193 0.0 14.5006 0.0 -10.5081 -7.3337994 13.0993 0.0 -21.24472 0.0 1.95318 1.43422 15.1203 0.0 19.3491 0.0 28.8484 -15.316999 -8.0458 0.0 -18.15244 0.0 
  -2.647049865722656 -0.6759120178222656 9.27166015625 96.7864 87.5528 621.085 3.29425 -14.9631 1.08554 -5.46024 16.5553 1.95283 10.9193 41.702 356.396 -70.7455 -84.2369 -423.366 -115.6812 -2.75177 367.107 -47.7835 7.78628 12.8181 0.0 16.304 0.0 4.90715 -16.191 -2.32944 0.0 0.0 0.0 0.0 0.0 0.0 120.6488 -5.38689 -361.846 47.1812 2.70129 -13.0181 0.0 20.5977 0.0 3.40677 -8.86995 13.5646 0.0 0.0 0.0 0.0 0.0 0.0 -2.18556 2.60715 -8.00738 0.0 14.3697 0.0 -10.492 -7.2651997 13.0556 0.0 -21.27093 0.0 1.93653 1.16529 15.3387 0.0 19.4085 0.0 28.8562 -15.288 -8.07408 0.0 -18.1745 0.0 
  -2.641199951171875 -0.6632180023193359 9.271939697265625 102.875 87.5349 614.947 3.33826 -14.839 1.11301 -5.40178 16.2908 1.91105 11.188 40.9852 356.131 -71.8094 -84.4646 -424.43 -115.7487 -2.68493 367.15 -47.6688 7.81033 12.9333 0.0 16.6265 0.0 4.9964 -16.1025 -2.81201 0.0 0.0 0.0 0.0 0.0 0.0 120.6533 -5.29434 -362.031 46.9954 2.61941 -12.8772 0.0 20.7682 0.0 3.02939 -8.56865 13.2218 0.0 0.0 0.0 0.0 0.0 0.0 -2.19661 2.23671 -8.01647 0.0 14.4529 0.0 -10.511 -7.3113995 13.0854 0.0 -21.2367 0.0 1.90375 0.812965 15.1713 0.0 19.3826 0.0 28.9704 -15.1597 -7.85007 0.0 -18.17293 0.0 
  -2.6364599609375 -0.6556790161132813 9.272479858398437 108.676 87.4456 609.038 3.33443 -14.8354 1.17136 -5.34179 16.0813 1.96434 11.3095 40.5968 356.118 -74.1569 -84.6926 -426.92 -115.8154 -2.65586 367.234 -47.5294 7.83078 13.1965 0.0 17.1004 0.0 5.21056 -15.9938 -2.59512 0.0 0.0 0.0 0.0 0.0 0.0 120.6276 -5.40129 -362.231 46.8764 2.71874 -12.6676 0.0 20.8134 0.0 2.92994 -8.4148 12.8014 0.0 0.0 0.0 0.0 0.0 0.0 -2.2312 1.97246 -7.98942 0.0 14.3785 0.0 -10.4425 -7.2660007 13.1577 0.0 -21.236599 0.0 1.85424 0.475352 15.1867 0.0 19.3807 0.0 29.0128 -15.104099 -7.75692 0.0 -18.15418 0.0 
  -2.631099853515625 -0.6454239654541015 9.271710205078126 111.289 87.3336 606.22 3.29029 -14.6852 1.25661 -5.27015 15.8079 2.05854 11.6026 40.2668 355.822 -74.6314 -84.8155 -427.432 -115.8949 -2.63922 367.298 -47.4268 7.83619 13.3904 0.0 17.5936 0.0 5.33713 -15.6706 -2.89935 0.0 0.0 0.0 0.0 0.0 0.0 120.5417 -5.4399 -362.169 46.8231 2.52587 -12.5744 0.0 20.9764 0.0 2.83082 -8.38348 12.677 0.0 0.0 0.0 0.0 0.0 0.0 -2.32186 1.78001 -7.77194 0.0 14.3715 0.0 -10.437 -7.2458 13.1335 0.0 -21.255741 0.0 1.89681 0.0832814 16.1166 0.0 19.7848 0.0 29.0315 -15.443399 -8.21993 0.0 -18.14304 0.0 
  -2.6265301513671875 -0.64152099609375 9.272230224609375 116.736 87.2052 600.797 3.25895 -14.8881 1.20728 -5.19551 15.7129 2.05079 11.7955 40.1813 355.669 -75.3345 -84.9003 -428.23 -115.9656 -2.67514 367.385 -47.2951 7.82573 13.7876 0.0 18.25 0.0 5.67243 -15.5895 -2.53421 0.0 0.0 0.0 0.0 0.0 0.0 120.508804 -5.60361 -362.001 46.7676 2.32487 -12.3036 0.0 21.2586 0.0 2.98725 -8.58294 12.7313 0.0 0.0 0.0 0.0 0.0 0.0 -2.34044 1.47075 -7.76705 0.0 14.3564 0.0 -10.2956 -7.1791 13.1739 0.0 -21.27629 0.0 1.89547 -0.248457 16.2774 0.0 19.8492 0.0 29.2468 -15.5186 -8.2092 0.0 -18.11557 0.0 
  -2.6216299438476565 -0.636889991760254 9.272849731445312 116.879 87.2228 600.713 3.23911 -14.9254 1.17007 -5.12918 15.8704 2.07546 11.9838 40.0079 355.491 -74.7884 -84.9541 -427.813 -115.9853 -2.61398 367.378 -47.2725 7.86314 13.9979 0.0 18.8296 0.0 5.91813 -15.3942 -2.48393 0.0 0.0 0.0 0.0 0.0 0.0 120.423904 -5.64586 -361.906 46.7367 2.26331 -12.2871 0.0 21.3299 0.0 2.78064 -8.25287 12.3348 0.0 0.0 0.0 0.0 0.0 0.0 -2.34976 1.42354 -7.80559 0.0 14.3791 0.0 -10.2266 -7.1518993 13.1869 0.0 -21.29476 0.0 1.868 -0.24567 16.1515 0.0 19.78 0.0 29.2315 -15.4596 -8.20173 0.0 -18.10763 0.0 
  -2.616669921875 -0.6309260177612305 9.272869873046876 117.584 87.1838 599.95 3.26446 -14.736 1.22639 -5.16853 15.4944 2.02626 12.0857 40.4456 355.549 -76.6264 -85.0164 -429.8 -116.0519 -2.715 367.478 -47.1674 7.83767 14.1291 0.0 19.3426 0.0 6.174 -15.1658 -2.70505 0.0 0.0 0.0 0.0 0.0 0.0 120.4805 -5.73039 -362.065 46.5998 2.22774 -12.2966 0.0 21.4506 0.0 2.86715 -8.47475 12.622 0.0 0.0 0.0 0.0 0.0 0.0 -2.40375 1.32163 -7.77095 0.0 14.4229 0.0 -10.2124 -7.1494007 13.2162 0.0 -21.29295 0.0 1.82659 -0.377561 16.1816 0.0 19.8554 0.0 29.3101 -15.4592 -8.12717 0.0 -18.11242 0.0 
  -2.6121200561523437 -0.6283869934082031 9.273359985351563 117.66 87.1762 599.872 3.25754 -14.7496 1.23117 -5.16391 15.4653 2.03474 12.1648 40.7583 355.539 -75.9773 -84.9884 -429.297 -116.0763 -2.76342 367.483 -47.1407 7.84517 14.4318 0.0 19.8351 0.0 6.56859 -14.9926 -2.48387 0.0 0.0 0.0 0.0 0.0 0.0 120.4745 -5.78563 -362.081 46.5316 2.16989 -12.3237 0.0 21.5704 0.0 2.80136 -8.48036 12.4282 0.0 0.0 0.0 0.0 0.0 0.0 -2.43448 1.29592 -7.73694 0.0 14.4167 0.0 -10.3096 -7.1742 13.1288 0.0 -21.236149 0.0 1.82092 -0.431376 16.3102 0.0 19.9344 0.0 29.3422 -15.511 -8.20801 0.0 -18.1009 0.0 
  -2.60885009765625 -0.6257220077514648 9.273250122070312 117.067 87.1947 600.453 3.22963 -14.7507 1.21345 -5.11625 15.4812 2.05376 12.2406 41.0455 355.485 -74.8662 -84.9332 -428.201 -116.092896 -2.77085 367.46 -47.1568 7.84232 14.6768 0.0 20.146 0.0 6.64108 -14.8663 -2.72693 0.0 0.0 0.0 0.0 0.0 0.0 120.4359 -5.76472 -362.035 46.4923 2.05684 -12.4115 0.0 21.6545 0.0 2.76916 -8.45106 12.4116 0.0 0.0 0.0 0.0 0.0 0.0 -2.45049 1.29281 -7.67527 0.0 14.4572 0.0 -10.2827 -7.1742992 13.0927 0.0 -21.24759 0.0 1.77777 -0.417586 16.1548 0.0 19.9138 0.0 29.3969 -15.4519005 -8.05078 0.0 -18.07484 0.0 
  -2.605580139160156 -0.6259659957885743 9.273779907226562 115.05 87.2165 602.403 3.17388 -14.8191 1.2067 -5.07186 15.596 2.12889 12.4855 41.4329 355.171 -72.7109 -84.7953 -425.986 -116.120895 -2.77718 367.449 -47.1701 7.88503 14.9725 0.0 20.4404 0.0 6.65622 -14.6607 -3.01645 0.0 0.0 0.0 0.0 0.0 0.0 120.4185 -5.80307 -362.11 46.4264 2.10293 -12.4321 0.0 21.7335 0.0 2.80693 -8.53959 12.4915 0.0 0.0 0.0 0.0 0.0 0.0 -2.49076 1.3964 -7.51376 0.0 14.4481 0.0 -10.2247 -7.113701 13.0378 0.0 -21.28906 0.0 1.74401 -0.346805 16.2688 0.0 19.9619 0.0 29.3751 -15.476 -8.11089 0.0 -18.07531 0.0 
  -2.60031005859375 -0.6234289932250977 9.273770141601563 114.163 87.2516 603.275 3.19382 -14.889 1.22571 -5.10053 15.6344 2.13893 12.6374 42.1197 355.026 -71.3733 -84.6332 -424.693 -116.1193 -2.79382 367.458 -47.2153 7.96692 15.2201 0.0 20.6356 0.0 6.74529 -14.5261 -2.6371 0.0 0.0 0.0 0.0 0.0 0.0 120.423904 -5.81435 -362.101 46.3656 2.07421 -12.6625 0.0 21.7545 0.0 2.74321 -8.33951 12.8027 0.0 0.0 0.0 0.0 0.0 0.0 -2.52307 1.39277 -7.51502 0.0 14.5343 0.0 -10.1831 -7.1415997 13.0812 0.0 -21.28564 0.0 1.71416 -0.342949 16.1894 0.0 20.0229 0.0 29.4549 -15.4412 -7.97433 0.0 -18.07007 0.0 
  -2.5952499389648436 -0.6220399856567382 9.274240112304687 111.823 87.3322 605.659 3.20382 -14.9376 1.1942 -5.0815 15.8325 2.13917 12.5137 42.5775 355.153 -70.6287 -84.4785 -424.01 -116.1766 -2.8093 367.38 -47.2119 8.05679 15.5459 0.0 20.7356 0.0 6.52815 -14.4376 -3.13232 0.0 0.0 0.0 0.0 0.0 0.0 120.4271 -5.86038 -361.986 46.3248 2.10445 -12.8665 0.0 21.7474 0.0 2.67909 -8.58486 12.2531 0.0 0.0 0.0 0.0 0.0 0.0 -2.54185 1.46138 -7.62286 0.0 14.6496 0.0 -10.0281 -7.134899 13.2201 0.0 -21.3384 0.0 1.68022 -0.201499 16.0129 0.0 19.9844 0.0 29.4768 -15.357901 -7.87139 0.0 -18.05265 0.0 
